HIERARCHY
ROOT SpineBase
{
  OFFSET 0.000000 0.000000 0.000000
  CHANNELS 6 Xposition Yposition Zposition Zrotation Xrotation Yrotation
  JOINT SpineMid
  {
    OFFSET 0.000000 36.262809 0.000000
    CHANNELS 3 Zrotation Xrotation Yrotation
    JOINT SpineShoulder
    {
      OFFSET -0.324309 26.860676 -0.822303
      CHANNELS 3 Zrotation Xrotation Yrotation
      JOINT Neck
      {
        OFFSET -0.263021 8.947002 -0.303541
        CHANNELS 3 Zrotation Xrotation Yrotation
        JOINT Head
        {
          OFFSET -3.442172 11.961747 2.469016
          CHANNELS 3 Zrotation Xrotation Yrotation
          End Site
          {
            OFFSET 0 0 0
          }
        }
      }
      JOINT ShoulderLeft
      {
        OFFSET -9.427260 -25.847042 -7.313100
        CHANNELS 3 Zrotation Xrotation Yrotation
        JOINT ElbowLeft
        {
          OFFSET -6.237209 -18.557510 -0.556147
          CHANNELS 3 Zrotation Xrotation Yrotation
          JOINT WristLeft
          {
            OFFSET 9.619387 22.259511 -4.560833
            CHANNELS 3 Zrotation Xrotation Yrotation
            JOINT HandLeft
            {
              OFFSET 1.407675 2.736693 0.360496
              CHANNELS 3 Zrotation Xrotation Yrotation
              JOINT HandTipLeft
              {
                OFFSET 5.095145 9.563280 -1.467095
                CHANNELS 3 Zrotation Xrotation Yrotation
                End Site
                {
                  OFFSET 0 0 0
                }
              }
              JOINT ThumbLeft
              {
                OFFSET -6.810513 -0.526904 0.427861
                CHANNELS 3 Zrotation Xrotation Yrotation
                End Site
                {
                  OFFSET 0 0 0
                }
              }
            }
          }
        }
      }
      JOINT ShoulderRight
      {
        OFFSET 4.166932 -2.938890 -12.127492
        CHANNELS 3 Zrotation Xrotation Yrotation
        JOINT ElbowRight
        {
          OFFSET 8.109107 -20.793925 -4.895039
          CHANNELS 3 Zrotation Xrotation Yrotation
          JOINT WristRight
          {
            OFFSET -14.595930 -15.236683 -3.681809
            CHANNELS 3 Zrotation Xrotation Yrotation
            JOINT HandRight
            {
              OFFSET -1.603976 -3.154066 2.675846
              CHANNELS 3 Zrotation Xrotation Yrotation
              JOINT HandTipRight
              {
                OFFSET -3.991801 -5.779805 -4.551724
                CHANNELS 3 Zrotation Xrotation Yrotation
                End Site
                {
                  OFFSET 0 0 0
                }
              }
              JOINT ThumbRight
              {
                OFFSET -4.392101 3.228737 1.864305
                CHANNELS 3 Zrotation Xrotation Yrotation
                End Site
                {
                  OFFSET 0 0 0
                }
              }
            }
          }
        }
      }
    }
  }
  JOINT HipLeft
  {
    OFFSET -4.261306 -0.288704 -3.430693
    CHANNELS 3 Zrotation Xrotation Yrotation
    JOINT KneeLeft
    {
      OFFSET -0.002482 -21.269461 9.455194
      CHANNELS 3 Zrotation Xrotation Yrotation
      JOINT AnkleLeft
      {
        OFFSET 9.919107 -24.818811 4.916991
        CHANNELS 3 Zrotation Xrotation Yrotation
        JOINT FootLeft
        {
          OFFSET -4.153270 -2.735218 -7.617384
          CHANNELS 3 Zrotation Xrotation Yrotation
          End Site
          {
            OFFSET 0 0 0
          }
        }
      }
    }
  }
  JOINT HipRight
  {
    OFFSET 3.638160 3.029685 -2.684378
    CHANNELS 3 Zrotation Xrotation Yrotation
    JOINT KneeRight
    {
      OFFSET 9.253845 -18.160834 -10.068217
      CHANNELS 3 Zrotation Xrotation Yrotation
      JOINT AnkleRight
      {
        OFFSET 6.996960 -23.252140 5.612979
        CHANNELS 3 Zrotation Xrotation Yrotation
        JOINT FootRight
        {
          OFFSET -3.610625 11.565976 -3.820527
          CHANNELS 3 Zrotation Xrotation Yrotation
          End Site
          {
            OFFSET 0 0 0
          }
        }
      }
    }
  }
}
MOTION
Frames: 6
Frame Time: 0.033333
27.824779 50.172490 323.271666 -0.000000 0.000000 -5.397093 -0.000000 0.000000 5.397093 -0.000000 0.000000 0.000000 -0.000000 0.000000 0.000000 0.000000 0.000000 0.000000 -0.000000 0.000000 0.000000 -0.000000 0.000000 0.000000 -0.000000 0.000000 0.000000 -0.000000 0.000000 0.000000 0.000000 0.000000 0.000000 0.000000 0.000000 0.000000 -0.000000 0.000000 0.000000 -0.000000 0.000000 0.000000 -0.000000 0.000000 0.000000 -0.000000 0.000000 0.000000 0.000000 0.000000 0.000000 0.000000 0.000000 0.000000 -0.000000 0.000000 5.397093 -0.000000 0.000000 0.000000 -0.000000 0.000000 0.000000 0.000000 0.000000 0.000000 -0.000000 0.000000 5.397093 -0.000000 0.000000 0.000000 -0.000000 0.000000 0.000000 0.000000 0.000000 0.000000
26.266913 50.816672 323.827845 -1.117336 -0.205346 -3.078632 -0.329698 -0.276837 3.023580 0.233890 -0.187079 -0.013417 1.227022 0.652680 0.053822 0.000000 0.000000 0.000000 1.227022 0.652680 0.053822 -0.000000 0.000000 0.000000 -3.720300 -2.185718 1.521957 7.820869 0.515646 -0.332287 0.000000 0.000000 0.000000 0.000000 0.000000 0.000000 3.029148 0.010987 -0.628359 2.699815 0.628568 -0.455573 -6.661762 7.554478 -4.633093 3.020091 -9.201357 7.318129 0.000000 0.000000 0.000000 0.000000 0.000000 0.000000 7.085194 2.808502 5.652544 -7.066409 -1.805336 -3.011966 -1.896152 2.989347 2.908681 0.000000 0.000000 0.000000 1.851396 1.082952 3.023772 -0.788858 -0.777315 0.036168 -0.296820 1.174094 0.272674 0.000000 0.000000 0.000000
25.327590 51.339578 324.115135 -1.781272 -0.287010 -1.903909 -0.567837 -0.428124 1.811662 0.319873 -0.414119 -0.030595 2.041830 1.114293 0.082165 0.000000 0.000000 0.000000 2.041830 1.114293 0.082165 -0.000000 0.000000 0.000000 -5.965939 -3.414870 2.312393 13.845769 0.173881 -0.199592 0.000000 0.000000 0.000000 0.000000 0.000000 0.000000 5.257497 0.029417 -1.121127 5.021459 1.021190 -0.926519 -12.018760 12.124772 -7.491325 5.940489 -14.623424 12.723385 0.000000 0.000000 0.000000 0.000000 0.000000 0.000000 11.770733 4.371960 6.051043 -11.899708 -2.650910 -5.168019 -3.239772 4.622901 5.537975 0.000000 0.000000 0.000000 2.329803 1.356054 2.061370 -0.595068 -0.989342 -0.180708 -0.611489 1.841030 0.385294 0.000000 0.000000 0.000000
25.006809 51.741206 324.133535 -1.978754 -0.241792 -1.406958 -0.705178 -0.469036 1.302698 0.252087 -0.683455 -0.048661 2.441432 1.382536 0.094005 0.000000 0.000000 0.000000 2.441432 1.382536 0.094005 -0.000000 0.000000 0.000000 -7.501164 -4.112100 2.755466 18.514656 -0.338597 0.083276 0.000000 0.000000 0.000000 0.000000 0.000000 0.000000 6.603702 0.099410 -1.425081 7.073226 1.135907 -1.398516 -16.521093 14.920693 -9.481404 8.485422 -17.617856 16.816222 0.000000 0.000000 0.000000 0.000000 0.000000 0.000000 14.064658 4.871803 6.372584 -14.514327 -2.827213 -6.330702 -3.941001 4.991104 7.801442 0.000000 0.000000 0.000000 1.431112 0.970698 2.047166 0.516510 -0.699401 -0.640272 -0.948147 2.044185 0.344849 0.000000 0.000000 0.000000
25.304571 52.021557 323.883047 -1.699301 -0.067128 -1.386900 -0.741575 -0.404446 1.297479 0.025538 -0.997097 -0.065696 2.423313 1.455926 0.094217 0.000000 0.000000 0.000000 2.423313 1.455926 0.094217 -0.000000 0.000000 0.000000 -8.655080 -4.458826 2.997336 21.906232 -0.719659 0.300399 0.000000 0.000000 0.000000 0.000000 0.000000 0.000000 7.007732 0.252049 -1.504771 8.951392 0.945180 -1.859866 -20.387401 16.589820 -11.060372 10.619156 -18.879645 19.928397 0.000000 0.000000 0.000000 0.000000 0.000000 0.000000 14.031613 4.352339 6.525062 -14.965608 -2.496220 -6.474421 -3.930023 4.156443 9.673652 0.000000 0.000000 0.000000 -0.893330 -0.096415 2.767806 2.344101 0.880857 -1.208975 -1.039794 1.006608 -0.041498 0.000000 0.000000 0.000000
26.220876 52.180631 323.363669 -0.934795 0.238915 -1.763874 -0.680336 -0.233324 1.711928 -0.364134 -1.356462 -0.080779 1.984800 1.333218 0.083434 0.000000 0.000000 0.000000 1.984800 1.333218 0.083434 -0.000000 0.000000 0.000000 -9.598126 -4.528780 3.099092 24.035208 -0.849489 0.327459 0.000000 0.000000 0.000000 0.000000 0.000000 0.000000 6.434532 0.497974 -1.344367 10.718897 0.438339 -2.297911 -23.778693 17.467127 -12.486780 12.395774 -18.742681 22.284863 0.000000 0.000000 0.000000 0.000000 0.000000 0.000000 11.669975 2.764398 6.394409 -13.242798 -1.665769 -5.604360 -3.137937 2.129339 11.176651 0.000000 0.000000 0.000000 -4.753569 -1.998962 4.102574 5.778596 2.530989 -2.182946 -1.646399 -0.058114 -0.579534 0.000000 0.000000 0.000000
